<mxfile host="app.diagrams.net" modified="2024-01-26T02:32:16.932Z" agent="Mozilla/5.0 (Windows NT 10.0; Win64; x64) AppleWebKit/537.36 (KHTML, like Gecko) Chrome/120.0.0.0 Safari/537.36" etag="ngR6nFl-L25oztLY1GUW" version="23.0.2" type="github">
  <diagram name="Page-1" id="xjQKykndbCt2BGKE1EX0">
    <mxGraphModel dx="1434" dy="772" grid="1" gridSize="10" guides="1" tooltips="1" connect="1" arrows="1" fold="1" page="1" pageScale="1" pageWidth="827" pageHeight="1169" math="0" shadow="0">
      <root>
        <mxCell id="0" />
        <mxCell id="1" parent="0" />
        <mxCell id="XmqYlcrU6ro_VFqoflqp-1" value="Thirdparty" style="rounded=0;whiteSpace=wrap;html=1;" vertex="1" parent="1">
          <mxGeometry width="280" height="60" as="geometry" />
        </mxCell>
        <mxCell id="XmqYlcrU6ro_VFqoflqp-2" value="" style="endArrow=none;html=1;rounded=0;" edge="1" parent="1">
          <mxGeometry width="50" height="50" relative="1" as="geometry">
            <mxPoint x="280" y="734" as="sourcePoint" />
            <mxPoint x="280" as="targetPoint" />
          </mxGeometry>
        </mxCell>
        <mxCell id="XmqYlcrU6ro_VFqoflqp-3" value="" style="endArrow=none;html=1;rounded=0;" edge="1" parent="1">
          <mxGeometry width="50" height="50" relative="1" as="geometry">
            <mxPoint x="560" y="734" as="sourcePoint" />
            <mxPoint x="560" as="targetPoint" />
          </mxGeometry>
        </mxCell>
        <mxCell id="XmqYlcrU6ro_VFqoflqp-4" value="Parcelport" style="rounded=0;whiteSpace=wrap;html=1;" vertex="1" parent="1">
          <mxGeometry x="280" width="280" height="60" as="geometry" />
        </mxCell>
        <mxCell id="XmqYlcrU6ro_VFqoflqp-5" value="ParcelHom" style="rounded=0;whiteSpace=wrap;html=1;" vertex="1" parent="1">
          <mxGeometry x="560" width="280" height="60" as="geometry" />
        </mxCell>
        <mxCell id="XmqYlcrU6ro_VFqoflqp-15" style="edgeStyle=orthogonalEdgeStyle;rounded=0;orthogonalLoop=1;jettySize=auto;html=1;entryX=0;entryY=0.5;entryDx=0;entryDy=0;" edge="1" parent="1" source="XmqYlcrU6ro_VFqoflqp-6" target="XmqYlcrU6ro_VFqoflqp-7">
          <mxGeometry relative="1" as="geometry" />
        </mxCell>
        <mxCell id="XmqYlcrU6ro_VFqoflqp-6" value="Push 3rd Order" style="rounded=0;whiteSpace=wrap;html=1;" vertex="1" parent="1">
          <mxGeometry x="70" y="120" width="120" height="50" as="geometry" />
        </mxCell>
        <mxCell id="XmqYlcrU6ro_VFqoflqp-16" style="edgeStyle=orthogonalEdgeStyle;rounded=0;orthogonalLoop=1;jettySize=auto;html=1;" edge="1" parent="1" source="XmqYlcrU6ro_VFqoflqp-7" target="XmqYlcrU6ro_VFqoflqp-8">
          <mxGeometry relative="1" as="geometry" />
        </mxCell>
        <mxCell id="XmqYlcrU6ro_VFqoflqp-7" value="Save 3rd Order" style="rounded=0;whiteSpace=wrap;html=1;" vertex="1" parent="1">
          <mxGeometry x="360" y="120" width="120" height="50" as="geometry" />
        </mxCell>
        <mxCell id="XmqYlcrU6ro_VFqoflqp-17" style="edgeStyle=orthogonalEdgeStyle;rounded=0;orthogonalLoop=1;jettySize=auto;html=1;" edge="1" parent="1" source="XmqYlcrU6ro_VFqoflqp-8" target="XmqYlcrU6ro_VFqoflqp-9">
          <mxGeometry relative="1" as="geometry" />
        </mxCell>
        <mxCell id="XmqYlcrU6ro_VFqoflqp-8" value="push &lt;br&gt;ParcelHom?" style="rhombus;whiteSpace=wrap;html=1;" vertex="1" parent="1">
          <mxGeometry x="330" y="220" width="180" height="80" as="geometry" />
        </mxCell>
        <mxCell id="XmqYlcrU6ro_VFqoflqp-18" style="edgeStyle=orthogonalEdgeStyle;rounded=0;orthogonalLoop=1;jettySize=auto;html=1;entryX=0;entryY=0.5;entryDx=0;entryDy=0;" edge="1" parent="1" source="XmqYlcrU6ro_VFqoflqp-9" target="XmqYlcrU6ro_VFqoflqp-10">
          <mxGeometry relative="1" as="geometry" />
        </mxCell>
        <mxCell id="XmqYlcrU6ro_VFqoflqp-9" value="Call ParcelHom API&lt;br&gt;push order" style="rounded=0;whiteSpace=wrap;html=1;" vertex="1" parent="1">
          <mxGeometry x="360" y="350" width="120" height="50" as="geometry" />
        </mxCell>
        <mxCell id="XmqYlcrU6ro_VFqoflqp-19" value="" style="edgeStyle=orthogonalEdgeStyle;rounded=0;orthogonalLoop=1;jettySize=auto;html=1;" edge="1" parent="1" source="XmqYlcrU6ro_VFqoflqp-10" target="XmqYlcrU6ro_VFqoflqp-11">
          <mxGeometry relative="1" as="geometry" />
        </mxCell>
        <mxCell id="XmqYlcrU6ro_VFqoflqp-10" value="Create Outwards&lt;br&gt;Order" style="rounded=0;whiteSpace=wrap;html=1;" vertex="1" parent="1">
          <mxGeometry x="640" y="350" width="120" height="50" as="geometry" />
        </mxCell>
        <mxCell id="XmqYlcrU6ro_VFqoflqp-20" value="" style="edgeStyle=orthogonalEdgeStyle;rounded=0;orthogonalLoop=1;jettySize=auto;html=1;" edge="1" parent="1" source="XmqYlcrU6ro_VFqoflqp-11" target="XmqYlcrU6ro_VFqoflqp-12">
          <mxGeometry relative="1" as="geometry" />
        </mxCell>
        <mxCell id="XmqYlcrU6ro_VFqoflqp-11" value="picking" style="rounded=0;whiteSpace=wrap;html=1;" vertex="1" parent="1">
          <mxGeometry x="640" y="440" width="120" height="50" as="geometry" />
        </mxCell>
        <mxCell id="XmqYlcrU6ro_VFqoflqp-21" style="edgeStyle=orthogonalEdgeStyle;rounded=0;orthogonalLoop=1;jettySize=auto;html=1;entryX=1;entryY=0.5;entryDx=0;entryDy=0;" edge="1" parent="1" source="XmqYlcrU6ro_VFqoflqp-12" target="XmqYlcrU6ro_VFqoflqp-13">
          <mxGeometry relative="1" as="geometry" />
        </mxCell>
        <mxCell id="XmqYlcrU6ro_VFqoflqp-12" value="Call Parcelport API&lt;br&gt;Create Consignment" style="rounded=0;whiteSpace=wrap;html=1;" vertex="1" parent="1">
          <mxGeometry x="640" y="535" width="120" height="50" as="geometry" />
        </mxCell>
        <mxCell id="XmqYlcrU6ro_VFqoflqp-22" style="edgeStyle=orthogonalEdgeStyle;rounded=0;orthogonalLoop=1;jettySize=auto;html=1;" edge="1" parent="1" source="XmqYlcrU6ro_VFqoflqp-13" target="XmqYlcrU6ro_VFqoflqp-14">
          <mxGeometry relative="1" as="geometry" />
        </mxCell>
        <mxCell id="XmqYlcrU6ro_VFqoflqp-13" value="Consignment Created" style="rounded=0;whiteSpace=wrap;html=1;" vertex="1" parent="1">
          <mxGeometry x="370" y="535" width="120" height="50" as="geometry" />
        </mxCell>
        <mxCell id="XmqYlcrU6ro_VFqoflqp-14" value="Fulfill 3rd" style="rounded=0;whiteSpace=wrap;html=1;" vertex="1" parent="1">
          <mxGeometry x="370" y="640" width="120" height="50" as="geometry" />
        </mxCell>
      </root>
    </mxGraphModel>
  </diagram>
</mxfile>
